<?xml version="1.0" encoding="UTF-8" standalone="no"?>
<svg
   xmlns:dc="http://purl.org/dc/elements/1.1/"
   xmlns:cc="http://creativecommons.org/ns#"
   xmlns:rdf="http://www.w3.org/1999/02/22-rdf-syntax-ns#"
   xmlns:svg="http://www.w3.org/2000/svg"
   xmlns="http://www.w3.org/2000/svg"
   xmlns:sodipodi="http://sodipodi.sourceforge.net/DTD/sodipodi-0.dtd"
   xmlns:inkscape="http://www.inkscape.org/namespaces/inkscape"
   width="104.60951mm"
   height="121.50777mm"
   viewBox="0 0 104.60951 121.50777"
   version="1.1"
   id="svg2589"
   inkscape:version="1.0.2-2 (e86c870879, 2021-01-15)"
   sodipodi:docname="who.svg">
  <defs
     id="defs2583" />
  <sodipodi:namedview
     id="base"
     pagecolor="#ffffff"
     bordercolor="#666666"
     borderopacity="1.0"
     inkscape:pageopacity="0.0"
     inkscape:pageshadow="2"
     inkscape:zoom="1.0437372"
     inkscape:cx="123.53216"
     inkscape:cy="246.57186"
     inkscape:document-units="mm"
     inkscape:current-layer="layer1"
     inkscape:document-rotation="0"
     showgrid="false"
     inkscape:window-width="2560"
     inkscape:window-height="1009"
     inkscape:window-x="-8"
     inkscape:window-y="-8"
     inkscape:window-maximized="1" />
  <metadata
     id="metadata2586">
    <rdf:RDF>
      <cc:Work
         rdf:about="">
        <dc:format>image/svg+xml</dc:format>
        <dc:type
           rdf:resource="http://purl.org/dc/dcmitype/StillImage" />
        <dc:title></dc:title>
      </cc:Work>
    </rdf:RDF>
  </metadata>
  <g
     inkscape:label="Layer 1"
     inkscape:groupmode="layer"
     id="layer1"
     transform="translate(-47.363805,-66.422183)">
    <path
       id="path3180-3"
       style="fill:#ffffff;fill-opacity:1;stroke:#ffffff;stroke-width:3;stroke-linecap:round;stroke-miterlimit:4;stroke-dasharray:none;stroke-opacity:1"
       d="m 100.39107,67.92241 c -1.340755,-0.0045 -2.718735,0.05821 -4.026105,0.179316 -2.3222,0.103174 -3.55668,0.421955 -6.36137,1.3193 -4.04668,1.294717 -7.76058,3.43032 -10.93835,6.207374 -2.24099,1.939088 -4.19157,4.189153 -5.8136,6.706565 -0.0863,0.132689 -0.17034,0.266954 -0.25476,0.401011 -0.0553,0.08868 -0.11192,0.176291 -0.1664,0.265617 -1.1624,1.886096 -2.14092,3.902306 -2.90318,6.02392 -0.97933,2.725767 -1.37962,4.257794 -1.52756,6.763411 -0.28909,2.861451 -0.29184,6.126386 0.0377,8.516796 0.0939,1.08795 0.26548,1.85805 0.58601,3.0427 0.27331,1.01011 0.59278,1.99724 0.94671,2.96416 0.0676,0.18897 0.13791,0.37652 0.20878,0.56379 0.0264,0.0686 0.0517,0.13784 0.0786,0.20619 0.72683,1.88217 1.61985,3.67683 2.67425,5.36918 1.6683,2.71241 3.69859,5.11993 6.02909,7.13238 0.44926,0.40828 0.8705,0.76658 1.23352,1.03714 l 1.18184,0.97721 c -0.0448,0.0563 -0.50924,0.31352 -1.22835,0.68678 l -2.36161,1.14928 c -2.01165,0.97913 -4.72922,2.48971 -6.03891,3.3569 -4.98,3.29745 -9.25605,7.37102 -12.72377,12.02924 -0.10858,0.14546 -0.21808,0.29008 -0.32505,0.43667 -0.10096,0.13871 -0.19968,0.27885 -0.2992,0.41858 -0.17299,0.24221 -0.34454,0.48552 -0.51315,0.7307 -0.0607,0.0885 -0.12075,0.17729 -0.18087,0.26613 -0.2158,0.31814 -0.42771,0.63876 -0.63614,0.9617 -0.0212,0.0329 -0.0425,0.0658 -0.0636,0.0987 -3.49941,5.4498 -5.94828,11.56841 -7.19232,18.06195 -0.045,0.23168 -0.0851,0.4649 -0.12712,0.69763 -0.0251,0.14128 -0.0515,0.28214 -0.0754,0.42375 -0.18878,1.09695 -0.34841,2.20422 -0.47026,3.32279 -0.26573,2.44248 -0.33584,8.76002 -0.21652,12.45867 0.002,0.0737 0.004,0.16375 0.006,0.23513 0.0461,1.302 0.11578,2.25682 0.21239,2.51251 0.1701,0.45024 0.50432,0.94262 0.90743,1.38855 0.022,0.0251 0.0437,0.0497 0.0661,0.0744 0.0449,0.0481 0.091,0.0938 0.13746,0.14056 0.36531,0.37577 0.77717,0.70314 1.19683,0.92294 0.0633,0.0336 0.12627,0.0647 0.18862,0.0925 0,0 5.1e-4,0 5.1e-4,0 0.0409,0.0182 0.11185,0.0357 0.21911,0.0522 0,0 5.2e-4,0 5.2e-4,0 0.10747,0.0165 0.25069,0.0322 0.43563,0.047 6.5e-4,5e-5 9e-4,-5e-5 0.002,0 0.18493,0.0148 0.41102,0.0286 0.6842,0.0419 8.2e-4,4e-5 10e-4,-4e-5 0.002,0 0.27341,0.0132 0.59322,0.026 0.96583,0.0377 10e-4,5e-5 0.002,-4e-5 0.004,0 0.7464,0.0235 1.70183,0.0444 2.91145,0.0625 0.003,5e-5 0.005,-5e-5 0.008,0 1.20981,0.0181 2.67129,0.0336 4.43126,0.047 0.006,4e-5 0.01,-5e-5 0.016,0 1.76024,0.0134 3.815,0.0248 6.21202,0.0341 0.0102,4e-5 0.0162,-4e-5 0.0264,0 0.35763,0.001 0.85803,0.002 1.23093,0.004 4.39867,0.0153 11.00796,0.022 17.78755,0.0279 4.2298,0.004 7.69553,0.01 13.00179,0.0109 0.559945,1.2e-4 0.903205,-0.001 1.452615,-0.001 31.1927,0.006 41.44634,-0.009 44.86444,-0.18396 0.86856,-0.0261 1.48705,-0.0542 1.572,-0.0863 0.8399,-0.31734 1.78488,-1.1562 2.3368,-2.02004 l 0.52555,-0.6568 0.031,-2.1239 c 0.18575,-3.44926 0.13853,-9.83102 -0.17673,-12.94753 -0.0931,-0.92012 -0.21107,-1.83355 -0.3514,-2.7404 -0.41959,-2.90129 -1.0778,-5.56382 -2.04329,-8.46616 -2.11002,-6.34287 -5.35162,-12.06269 -9.55239,-16.97415 -0.026,-0.0305 -0.0525,-0.0605 -0.0785,-0.0909 -0.25719,-0.29923 -0.51756,-0.5957 -0.78187,-0.88884 -0.13709,-0.15294 -0.27444,-0.30555 -0.41341,-0.45682 -0.0884,-0.0956 -0.17852,-0.18977 -0.26769,-0.28473 -3.96719,-4.2515 -8.67546,-7.82578 -13.98054,-10.49962 -0.40737,-0.20985 -0.81831,-0.41552 -1.233,-0.61598 l -1.29604,-0.62632 c -1.01123,-0.5198 -1.728,-0.94475 -1.73013,-1.048 -0.002,-0.0938 0.18367,-0.29991 0.44804,-0.52762 0.24548,-0.17807 0.48784,-0.36334 0.72915,-0.5519 0.16507,-0.1227 0.34876,-0.27336 0.53899,-0.43253 1.60487,-1.32262 3.10708,-2.87004 4.46122,-4.57854 0.33584,-0.40378 0.65593,-0.80028 0.92811,-1.16737 2.05229,-2.76792 3.59349,-5.81898 4.62091,-9.01598 0.2234,-0.66518 0.42393,-1.33433 0.59893,-2.00608 0.20273,-0.77821 0.37003,-1.65185 0.50436,-2.57555 0.42678,-2.61833 0.52664,-5.288082 0.29042,-7.943697 -0.0635,-0.878937 -0.1607,-1.713206 -0.29559,-2.465482 -0.0952,-0.530913 -0.20734,-1.055479 -0.32711,-1.57665 -0.55352,-2.508514 -1.41388,-4.972013 -2.58951,-7.331334 -1.368,-2.745412 -3.1305,-5.258117 -5.20898,-7.480165 -0.004,-0.0047 -0.009,-0.0092 -0.0134,-0.01395 -0.17445,-0.186278 -0.35132,-0.370293 -0.5302,-0.552421 -3.26852,-3.366918 -7.26042,-6.005944 -11.73571,-7.674467 -1.06708,-0.409208 -2.16031,-0.766533 -3.27629,-1.067636 -1.2101,-0.326499 -2.00054,-0.495636 -3.1533,-0.587561 -1.21181,-0.160956 -2.60944,-0.241641 -4.05401,-0.246496 z" />
    <g
       id="g3166"
       transform="translate(-195.02273,71.699533)">
      <path
         style="fill:#c9fdbb;stroke-width:0.264583"
         d="m 246.66321,114.36488 c -0.98603,-0.44012 -2.12489,-1.63466 -2.49671,-2.61878 -0.3683,-0.97477 -0.3694,-11.829737 -0.002,-15.20674 1.6861,-15.478836 9.84862,-28.99993 22.6066,-37.447478 1.30969,-0.867193 4.02714,-2.377826 6.03879,-3.356962 l 3.65755,-1.780246 -2.02601,-1.675855 c -4.93234,-4.07989 -8.57576,-9.909037 -10.39422,-16.629823 -0.62071,-2.294094 -0.6868,-3.007307 -0.70053,-7.560143 -0.0163,-5.405276 0.19931,-6.851502 1.60459,-10.76284 3.35262,-9.3314248 10.85032,-16.65314878 20.07608,-19.6048914 3.98163,-1.2739044 4.78834,-1.3832138 10.05416,-1.3623376 4.528,0.017952 5.27663,0.087259 7.54063,0.6981097 9.08858,2.45219602 16.67882,8.5890593 20.76452,16.7885373 5.31095,10.658397 4.22268,23.44024 -2.80244,32.915022 -1.63671,2.207424 -4.66795,5.329295 -6.16398,6.348261 -0.52061,0.354597 -0.94422,0.763783 -0.94135,0.909304 0.003,0.145521 1.39102,0.917805 3.08478,1.716185 15.96869,7.527121 26.83222,23.067758 28.64379,40.975908 0.42084,4.160219 0.36362,14.140569 -0.0871,15.194009 -0.44055,1.02962 -1.61591,2.17139 -2.6295,2.55435 -0.51647,0.19514 -15.19904,0.27825 -47.88958,0.27106 -38.7998,-0.009 -47.28525,-0.0731 -47.9385,-0.36465 z"
         id="path3180" />
      <path
         style="fill:#abcdd2;stroke-width:0.264583"
         d="m 246.66321,114.36488 c -1.09312,-0.48792 -2.2083,-1.73567 -2.51876,-2.81816 -0.34436,-1.20071 -0.33214,-11.37718 0.0178,-14.836609 1.30504,-12.900868 7.26743,-24.658795 16.78845,-33.107091 3.48517,-3.092503 7.16398,-5.537345 11.56436,-7.685392 2.1403,-1.044786 3.89566,-1.959141 3.9008,-2.031902 0.005,-0.07276 -0.41166,-0.419028 -0.92623,-0.769482 -1.54839,-1.054555 -4.45861,-4.040936 -6.11537,-6.2754 -2.90091,-3.912457 -4.86075,-8.468786 -5.78977,-13.460325 -0.6531,-3.509039 -0.42726,-9.675547 0.48036,-13.116393 3.07096,-11.6421737 11.55518,-20.12605293 23.19237,-23.1914409 3.4121,-0.8987935 9.3173,-1.122254 12.95795,-0.490346 13.28985,2.3067216 23.67796,12.7276703 26.08842,26.1708889 0.66455,3.706196 0.44749,9.350094 -0.49938,12.984758 -1.82252,6.995969 -6.35089,13.755779 -11.90641,17.773527 l -0.76304,0.551828 3.37049,1.629317 c 12.64837,6.114299 21.91951,16.620029 26.30754,29.810775 2.09501,6.297758 2.758,11.451613 2.6262,20.415167 l -0.0862,5.86308 -0.81257,1.01609 c -0.44691,0.55884 -1.22081,1.22425 -1.71979,1.47869 -0.85391,0.43542 -3.68305,0.46202 -48.13535,0.45266 -38.87013,-0.008 -47.36859,-0.0726 -48.02187,-0.36424 z m 50.08502,-67.271881 c 2.24965,-1.405323 2.13747,-5.354253 -0.18623,-6.555885 -2.6058,-1.347517 -5.57911,0.40821 -5.57911,3.294446 0,3.010199 3.23658,4.841121 5.76534,3.261439 z m -0.32137,-9.507314 c 1.21361,-0.575895 1.96239,-1.857677 1.96239,-3.359275 0,-1.817441 0.34139,-2.409073 1.89766,-3.288667 5.64923,-3.192899 7.4716,-10.688134 3.93072,-16.166578 -1.19459,-1.848252 -2.49405,-2.965878 -4.74313,-4.079395 -1.44326,-0.7145579 -2.05207,-0.853851 -4.12896,-0.9446869 -3.02863,-0.1324618 -4.74458,0.3232789 -7.04915,1.8721939 -3.1667,2.128351 -4.81137,5.138546 -4.83958,8.857725 -0.0164,2.16209 -0.01,2.184683 0.95034,3.145261 0.78625,0.786802 1.2105,0.990936 2.27128,1.092864 2.31298,0.222247 3.82771,-1.087538 4.19697,-3.629115 0.35876,-2.46934 1.6333,-3.710805 3.80968,-3.710805 3.81776,0 5.08375,4.869394 1.78836,6.878616 -0.47428,0.289169 -1.19356,0.526206 -1.59842,0.526749 -1.03416,0.0013 -2.32306,0.601128 -3.10036,1.44264 -0.63916,0.691957 -0.6643,0.858301 -0.74588,4.934228 -0.0779,3.890629 -0.0418,4.287112 0.46467,5.106585 0.99726,1.613596 3.11987,2.182243 4.93341,1.32166 z"
         id="path3178" />
      <path
         style="fill:#a3e1af;stroke-width:0.264583"
         d="m 246.66321,114.10181 c -0.97306,-0.43248 -1.85572,-1.36434 -2.23134,-2.35571 -0.36719,-0.96913 -0.37115,-11.67924 -0.006,-15.300572 1.15292,-11.423123 6.30609,-22.346244 14.37254,-30.46532 4.36748,-4.39597 8.60057,-7.391881 14.35283,-10.157999 1.94801,-0.936752 3.54183,-1.799013 3.54183,-1.916141 0,-0.117126 -0.47068,-0.539145 -1.04597,-0.937816 -1.61731,-1.120799 -5.57881,-5.358397 -6.93366,-7.4169 -2.4138,-3.667437 -4.1506,-7.950306 -4.8689,-12.006479 -0.52648,-2.972977 -0.52372,-8.545007 0.006,-11.298618 1.83099,-9.525154 7.87119,-17.7394475 16.31993,-22.19409955 4.76329,-2.51147805 9.15393,-3.58100955 14.70076,-3.58100955 10.51154,0 19.93221,4.8939408 25.96967,13.4909678 6.51206,9.2728493 7.44293,22.0116313 2.34927,32.1496553 -1.88679,3.755331 -5.54348,8.208187 -8.81019,10.728433 -0.79123,0.610433 -1.43787,1.184693 -1.43697,1.276138 7.9e-4,0.09144 1.3989,0.821105 3.10666,1.62147 16.26137,7.621063 27.11266,23.016571 28.90557,41.010414 0.16674,1.67349 0.26489,5.731216 0.21809,9.017166 l -0.0851,5.97445 -0.76248,0.99893 c -1.42812,1.87099 2.41165,1.73762 -49.69829,1.72618 -38.71883,-0.008 -47.31269,-0.0736 -47.96422,-0.36314 z m 50.08502,-67.008811 c 2.24965,-1.405323 2.13747,-5.354253 -0.18623,-6.555885 -2.6058,-1.347517 -5.57911,0.40821 -5.57911,3.294446 0,3.010199 3.23658,4.841121 5.76534,3.261439 z m -0.32137,-9.507314 c 1.21361,-0.575895 1.96239,-1.857677 1.96239,-3.359275 0,-1.817441 0.34139,-2.409073 1.89766,-3.288667 5.64923,-3.192899 7.4716,-10.688134 3.93072,-16.166578 -1.19459,-1.848252 -2.49405,-2.965878 -4.74313,-4.079395 -1.44326,-0.7145579 -2.05207,-0.853851 -4.12896,-0.9446869 -3.02863,-0.1324618 -4.74458,0.3232789 -7.04915,1.8721939 -3.1667,2.128351 -4.81137,5.138546 -4.83958,8.857725 -0.0164,2.16209 -0.01,2.184683 0.95034,3.145261 0.78625,0.786802 1.2105,0.990936 2.27128,1.092864 2.31298,0.222247 3.82771,-1.087538 4.19697,-3.629115 0.35876,-2.46934 1.6333,-3.710805 3.80968,-3.710805 3.81776,0 5.08375,4.869394 1.78836,6.878616 -0.47428,0.289169 -1.19356,0.526206 -1.59842,0.526749 -1.03416,0.0013 -2.32306,0.601128 -3.10036,1.44264 -0.63916,0.691957 -0.6643,0.858301 -0.74588,4.934228 -0.0779,3.890629 -0.0418,4.287112 0.46467,5.106585 0.99726,1.613596 3.11987,2.182243 4.93341,1.32166 z"
         id="path3176" />
      <path
         style="fill:#8cbbc2;stroke-width:0.264583"
         d="m 246.66321,114.10181 c -0.97306,-0.43248 -1.85572,-1.36434 -2.23134,-2.35571 -0.36719,-0.96913 -0.37115,-11.67924 -0.006,-15.300572 1.15292,-11.423123 6.30609,-22.346244 14.37254,-30.46532 4.36748,-4.39597 8.60057,-7.391881 14.35283,-10.157999 1.94801,-0.936752 3.54183,-1.799013 3.54183,-1.916141 0,-0.117126 -0.47068,-0.539145 -1.04597,-0.937816 -1.61731,-1.120799 -5.57881,-5.358397 -6.93366,-7.4169 -2.4138,-3.667437 -4.1506,-7.950306 -4.8689,-12.006479 -0.52648,-2.972977 -0.52372,-8.545007 0.006,-11.298618 1.83099,-9.525154 7.87119,-17.7394475 16.31993,-22.19409955 4.76329,-2.51147805 9.15393,-3.58100955 14.70076,-3.58100955 10.51154,0 19.93221,4.8939408 25.96967,13.4909678 6.51206,9.2728493 7.44293,22.0116313 2.34927,32.1496553 -1.88679,3.755331 -5.54348,8.208187 -8.81019,10.728433 -0.79123,0.610433 -1.43787,1.184693 -1.43697,1.276138 7.9e-4,0.09144 1.3989,0.821105 3.10666,1.62147 16.26137,7.621063 27.11266,23.016571 28.90557,41.010414 0.16674,1.67349 0.26489,5.731216 0.21809,9.017166 l -0.0851,5.97445 -0.76248,0.99893 c -1.42812,1.87099 2.41165,1.73762 -49.69829,1.72618 -38.71883,-0.008 -47.31269,-0.0736 -47.96422,-0.36314 z m 50.29194,-66.858403 c 1.26257,-0.757552 1.79503,-1.981787 1.64562,-3.783555 -0.10837,-1.306726 -0.25824,-1.650563 -1.07583,-2.468152 -0.80289,-0.802894 -1.17139,-0.968288 -2.38078,-1.06858 -5.28165,-0.437997 -6.29318,6.683964 -1.12054,7.889485 0.99401,0.231661 1.88517,0.05863 2.93153,-0.569198 z m -0.21713,-9.495834 c 1.20191,-0.732812 1.91289,-2.008079 1.91843,-3.441012 0.007,-1.853073 0.22835,-2.310577 1.41408,-2.924927 7.0807,-3.668625 8.43669,-13.30717 2.64299,-18.786614 -0.77514,-0.733094 -2.21403,-1.714071 -3.19754,-2.179949 -1.68938,-0.8002444 -1.95633,-0.8470508 -4.8309,-0.8470508 -2.87457,0 -3.14152,0.046806 -4.8309,0.8470508 -2.45142,1.161212 -4.47854,3.140906 -5.65631,5.523973 -0.79335,1.605221 -0.96499,2.267489 -1.06801,4.12079 -0.1059,1.905055 -0.0479,2.32656 0.42215,3.0705 0.75352,1.192453 2.03675,1.91363 3.40715,1.914821 2.2997,0.0021 3.79766,-1.414243 4.24887,-4.017089 0.23903,-1.378905 0.45161,-1.820545 1.21797,-2.530359 2.19271,-2.030936 5.70112,-0.409826 5.69767,2.632694 -0.002,1.785247 -1.69146,3.386577 -3.57292,3.386577 -1.04646,0 -2.73913,0.985025 -3.31464,1.928902 -0.45522,0.746578 -0.5178,1.344914 -0.5178,4.950264 0,3.626493 0.0608,4.200824 0.52576,4.963356 1.12214,1.840465 3.6885,2.488869 5.49395,1.388073 z"
         id="path3174" />
      <path
         style="fill:#5da4a5;stroke-width:0.264583"
         d="m 247.22394,114.20309 c -0.9078,-0.27356 -1.9245,-1.1752 -2.43795,-2.16204 -0.54911,-1.05537 -0.52147,-13.801036 0.0383,-17.640119 2.44567,-16.774596 12.80354,-30.950742 27.90042,-38.185543 4.30965,-2.065287 4.10105,-1.950749 4.10105,-2.251768 0,-0.143719 -0.9092,-0.99272 -2.02044,-1.88667 -5.03259,-4.048508 -8.77557,-10.100865 -10.48059,-16.946993 -0.59982,-2.40842 -0.70133,-3.391066 -0.71371,-6.908813 -0.0157,-4.457461 0.26656,-6.407176 1.4618,-10.097907 2.97521,-9.1870224 10.55773,-16.8749644 19.65579,-19.9290827 3.03131,-1.0175787 5.56804,-1.4839391 8.89819,-1.6358711 15.27176,-0.6967471 28.90033,10.0266482 32.17061,25.3128618 0.65535,3.063277 0.66521,9.081737 0.0199,12.131796 -1.60365,7.579365 -5.85199,14.4435 -11.64754,18.819179 -0.81809,0.617667 -1.42956,1.216697 -1.3588,1.331177 0.0708,0.11448 1.62976,0.933794 3.46446,1.820701 15.45997,7.473444 25.80848,21.539717 28.27057,38.426933 0.29063,1.993405 0.40999,4.889807 0.40999,9.948889 0,6.96558 -0.0143,7.1578 -0.59531,8.01151 -0.32742,0.48108 -0.93145,1.12377 -1.34229,1.42819 l -0.74697,0.5535 -47.14261,0.0449 c -26.04188,0.0248 -47.48375,-0.0579 -47.90479,-0.1848 z m 49.80647,-66.852196 c 0.83558,-0.608198 1.888,-2.569966 1.888,-3.519334 0,-1.308933 -1.10036,-2.997192 -2.37116,-3.63802 -0.6493,-0.327422 -1.48728,-0.595313 -1.86217,-0.595313 -0.37489,0 -1.21287,0.267891 -1.86217,0.595313 -1.2708,0.640828 -2.37116,2.329087 -2.37116,3.63802 0,0.374894 0.26789,1.212869 0.59531,1.862167 1.09953,2.180439 4.11647,3.016019 5.98335,1.657167 z m -0.0553,-9.690565 c 1.20048,-0.793038 1.75728,-1.907913 1.92692,-3.858268 l 0.14871,-1.709708 1.32292,-0.767112 c 4.27167,-2.476989 6.67616,-7.379713 5.93057,-12.092344 -0.7924,-5.008496 -4.79239,-9.008754 -9.84542,-9.8460666 -6.22488,-1.0314958 -12.43721,3.5299236 -13.39931,9.8384806 -0.33672,2.207877 -0.0335,3.520332 1.07857,4.667644 1.4693,1.515933 3.70448,1.712857 5.45736,0.480807 0.74603,-0.524365 1.65011,-2.256806 1.65011,-3.162033 0,-3.69887 4.89075,-4.906095 6.46194,-1.595056 0.9315,1.962999 -0.42305,4.402542 -2.6443,4.762391 -0.57174,0.09262 -1.30523,0.222795 -1.62998,0.289271 -0.95341,0.19517 -2.41632,1.661184 -2.70893,2.714681 -0.40948,1.474287 -0.34521,7.299732 0.0918,8.321106 1.07583,2.514388 3.93796,3.423446 6.15903,1.956207 z"
         id="path3172" />
      <path
         style="fill:#2e868e;stroke-width:0.264583"
         d="m 246.91467,113.83972 c -1.21518,-0.53105 -2.17748,-1.83731 -2.38808,-3.24168 -0.30294,-2.02017 0.0721,-13.720101 0.53301,-16.627941 2.06731,-13.042359 8.90795,-24.558607 19.29343,-32.48056 2.88608,-2.201479 6.98922,-4.618916 10.17809,-5.996601 1.4803,-0.639533 2.69001,-1.292551 2.68824,-1.451147 -0.002,-0.158597 -0.91468,-1.002731 -2.02869,-1.875856 -7.06318,-5.53588 -11.46184,-14.826609 -11.46184,-24.209374 0,-10.414243 5.13409,-20.1586754 13.62604,-25.8620583 12.76607,-8.5739717 29.57818,-6.7327451 40.16325,4.3985945 8.98701,9.4508018 11.1837,23.1060998 5.61215,34.8867178 -2.08515,4.408881 -5.48819,8.634743 -9.2059,11.431812 -0.84178,0.633319 -1.49247,1.2656 -1.44598,1.405067 0.0465,0.139464 1.33053,0.812853 2.85342,1.496417 13.84654,6.215144 24.26137,18.690203 27.9881,33.524617 1.22072,4.859112 1.49541,7.672644 1.49977,15.361452 0.004,6.58442 -0.0229,6.96089 -0.54158,7.65657 -0.30003,0.40241 -0.8743,0.97713 -1.27614,1.27717 l -0.73064,0.54551 -47.27489,0.057 c -38.8993,0.0469 -47.41784,-0.006 -48.08176,-0.29566 z m 49.44491,-65.871143 c 1.09128,-0.455964 2.19307,-1.753552 2.57698,-3.034916 0.63776,-2.12865 -0.85065,-4.664866 -3.14021,-5.350833 -3.0649,-0.918265 -6.28569,2.270321 -5.37239,5.31867 0.42149,1.406798 1.49614,2.567496 2.80591,3.030572 1.35053,0.477485 2.05464,0.485701 3.12971,0.03651 z m 0.59604,-9.971187 c 1.30905,-0.809041 2.00439,-2.12698 2.1627,-4.09919 l 0.13632,-1.698223 1.36544,-0.770612 c 1.97745,-1.115999 3.74239,-3.03971 4.85586,-5.292661 0.89297,-1.8068 0.98022,-2.187612 1.06268,-4.638339 0.0735,-2.183249 -0.0102,-2.955409 -0.45906,-4.236069 -1.5227,-4.344772 -5.07702,-7.3469212 -9.59905,-8.1078311 -5.05887,-0.8512437 -10.35636,1.9819191 -12.64659,6.7635551 -1.11839,2.33503 -1.41233,5.5172 -0.65671,7.109557 1.15638,2.436887 4.43788,3.15314 6.61178,1.443154 0.80797,-0.63555 1.70629,-2.391754 1.71528,-3.35335 0.0158,-1.685681 1.52881,-3.214986 3.18081,-3.214986 1.6547,0 3.17667,1.541621 3.17401,3.214986 -0.002,1.545378 -1.81546,3.135014 -3.57553,3.135014 -1.69502,0 -3.68959,1.913638 -3.97444,3.813182 -0.0981,0.654323 -0.13583,2.59411 -0.0838,4.310642 0.10596,3.494646 0.51507,4.560273 2.15371,5.609812 1.16203,0.744275 3.38177,0.749784 4.57657,0.01135 z"
         id="path3170" />
      <path
         style="fill:#107481;stroke-width:0.264583"
         d="m 246.5039,113.34555 c -1.67827,-1.12115 -1.8242,-1.76386 -1.82466,-8.03648 -8.4e-4,-11.55473 1.37028,-18.143614 5.46988,-26.285314 5.53796,-10.998239 14.136,-18.923589 26.08127,-24.040728 0.69123,-0.296109 1.25677,-0.70919 1.25677,-0.917956 0,-0.208767 -0.64517,-0.877324 -1.43371,-1.485678 -1.98574,-1.531988 -5.38833,-5.128138 -6.75167,-7.135741 -1.69607,-2.497571 -3.60276,-6.696625 -4.39633,-9.681884 -0.94129,-3.541009 -1.18137,-9.375917 -0.53779,-13.070726 2.26343,-12.9944133 12.35862,-23.05464557 25.42263,-25.3345934 3.45745,-0.6033994 9.1947,-0.3678748 12.58722,0.5167289 5.14717,1.34212796 9.62744,3.7610881 13.46047,7.2674891 13.2171,12.0907964 13.45072,32.9775914 0.50529,45.1731844 -1.08128,1.018645 -2.49741,2.287209 -3.14697,2.819026 -1.0508,0.860338 -1.13726,1.010936 -0.78414,1.365925 0.21828,0.219437 1.17078,0.717066 2.11667,1.105839 4.22742,1.737532 9.51158,5.143513 13.49375,8.697589 4.67197,4.169722 8.2611,8.887995 11.19846,14.721525 4.10868,8.159726 5.47007,14.744498 5.46966,26.455714 -2.2e-4,6.08499 -0.15459,6.75055 -1.82444,7.86608 l -0.89902,0.60059 h -47.28216 -47.28216 z m 50.23177,-65.312711 c 2.40931,-1.166326 3.29721,-4.094596 1.95583,-6.450237 -0.74657,-1.311076 -1.50219,-1.882748 -3.02794,-2.290826 -1.00848,-0.269724 -1.36388,-0.248467 -2.38858,0.14287 -1.5345,0.586033 -2.75172,1.830538 -3.12501,3.195068 -0.60916,2.22676 0.79456,4.749819 3.09948,5.571027 1.444,0.514477 2.1465,0.480642 3.48622,-0.167902 z m 0.0477,-9.615733 c 1.645,-0.850662 2.6596,-2.774908 2.66273,-5.050009 10e-4,-0.99763 0.0793,-1.109832 1.12596,-1.622235 3.78518,-1.852993 6.30168,-6.121672 6.31176,-10.706454 0.008,-3.488359 -0.97322,-5.928809 -3.40959,-8.483085 -4.70406,-4.9317208 -12.28259,-5.0635865 -17.27608,-0.300602 -3.34865,3.194068 -4.84139,8.90843 -2.97881,11.403152 1.87215,2.507546 4.91593,2.721832 7.12471,0.501592 0.93479,-0.939636 1.13456,-1.345332 1.38739,-2.817487 0.2356,-1.371915 0.45801,-1.866971 1.0995,-2.447396 2.29879,-2.079963 5.61206,0.436036 4.39862,3.340187 -0.43341,1.03731 -1.63514,1.753042 -2.9434,1.753042 -0.37427,0 -1.12224,0.225457 -1.66214,0.501013 -2.1866,1.115996 -2.67821,2.383895 -2.67821,6.90732 0,4.381066 0.46156,5.662911 2.49031,6.91606 0.97315,0.601109 3.28004,0.656775 4.34725,0.104902 z"
         id="path3168" />
    </g>
  </g>
</svg>
